# xmcd CD database file
# Copyright (C) 1997 Ti Kan
# 
# Track frame offsets:
#     150
#     10202
#     29882
#     44110
#     64610
#     78820
#     92304
#     106385
#     123202
#     147872
#     160967
#     183977
#     197045
#     214122
# 
# Disc length: 3076 seconds
# 
# Revision: 1
# Processed by: cddbd v1.4b41PL1 Copyright (c) Steve Scherf et al.
# Submitted via: DiscPlay 4.0.4
# 
DISCID=bc0c020e
DTITLE=Erasmo Carlos - Cole  o Obras-primas
DYEAR=1900
DGENRE=
TTITLE0=Negro gato
TTITLE1=Meu mar
TTITLE2=Caf  da manh 
TTITLE3=O comil o
TTITLE4=A banda dos contentes
TTITLE5=Grilos
TTITLE6=1990 - projeto salvaterra
TTITLE7=Filho
TTITLE8=Sentado   beira do caminho
TTITLE9=Paralelas
TTITLE10=Continente perdido
TTITLE11=Largo da segunda feira
TTITLE12=Comeu
TTITLE13=Cacha a mec nica
EXTD=
EXTT0=
EXTT1=
EXTT2=
EXTT3=
EXTT4=
EXTT5=
EXTT6=
EXTT7=
EXTT8=
EXTT9=
EXTT10=
EXTT11=
EXTT12=
EXTT13=
PLAYORDER=
